<svg version="1.1" viewBox="0 0 100 100" xmlns="http://www.w3.org/2000/svg">
 <path d="m91.562 48.438c0.9375-2.8125 1.5625-5.625 1.5625-8.4375 0-13.438-10.938-24.375-24.062-24.375-6.875 0-13.75 3.125-18.125 8.125-3.4375-2.8125-7.8125-4.375-12.5-4.375-11.25 0-20.312 9.0625-20.312 20.312 0 1.25 0 2.5 0.3125 3.75-9.6875 1.5625-16.562 10-16.562 20 0 11.25 9.0625 20.312 20.312 20.312h56.25c11.25 0 20.312-9.0625 20.312-20.312-0.3125-5.3125-2.8125-10.938-7.1875-15zm-28.125 13.125c0.9375 0.9375 0.9375 2.5 0 3.4375-0.3125 0.3125-0.9375 0.625-1.5625 0.625s-1.25-0.3125-1.5625-0.625l-7.8125-7.8125-7.8125 7.8125c-0.3125 0.3125-0.9375 0.625-1.5625 0.625s-1.25-0.3125-1.5625-0.625c-0.9375-0.9375-0.9375-2.5 0-3.4375l7.8125-7.8125-7.8125-7.8125c-0.9375-0.9375-0.9375-2.5 0-3.4375s2.5-0.9375 3.4375 0l7.8125 7.8125 7.8125-7.8125c0.9375-0.9375 2.5-0.9375 3.4375 0s0.9375 2.5 0 3.4375l-7.8125 7.8125z"/>
</svg>
