<svg viewBox="0 0 100 100" xmlns="http://www.w3.org/2000/svg"><path d="M45.832 75c0 4.582-3.75 8.332-8.332 8.332s-8.332-3.75-8.332-8.332 3.75-8.332 8.332-8.332 8.332 3.75 8.332 8.332M37.5 41.668c-4.582 0-8.332 3.75-8.332 8.332s3.75 8.332 8.332 8.332 8.332-3.75 8.332-8.332-3.75-8.332-8.332-8.332m0-25c-4.582 0-8.332 3.75-8.332 8.332s3.75 8.332 8.332 8.332 8.332-3.75 8.332-8.332-3.75-8.332-8.332-8.332m25 16.664c4.582 0 8.332-3.75 8.332-8.332s-3.75-8.332-8.332-8.332-8.332 3.75-8.332 8.332 3.75 8.332 8.332 8.332m0 8.336c-4.582 0-8.332 3.75-8.332 8.332s3.75 8.332 8.332 8.332 8.332-3.75 8.332-8.332-3.75-8.332-8.332-8.332m0 25c-4.582 0-8.332 3.75-8.332 8.332s3.75 8.332 8.332 8.332 8.332-3.75 8.332-8.332-3.75-8.332-8.332-8.332"/></svg>