<?xml version="1.0" encoding="UTF-8"?>
<svg width="100pt" height="100pt" version="1.1" viewBox="0 0 100 100" xmlns="http://www.w3.org/2000/svg">
 <path d="m45.832 75c0 4.582-3.75 8.332-8.332 8.332s-8.332-3.75-8.332-8.332 3.75-8.332 8.332-8.332 8.332 3.75 8.332 8.332zm-8.332-33.332c-4.582 0-8.332 3.75-8.332 8.332s3.75 8.332 8.332 8.332 8.332-3.75 8.332-8.332-3.75-8.332-8.332-8.332zm0-25c-4.582 0-8.332 3.75-8.332 8.332s3.75 8.332 8.332 8.332 8.332-3.75 8.332-8.332-3.75-8.332-8.332-8.332zm25 16.664c4.582 0 8.332-3.75 8.332-8.332s-3.75-8.332-8.332-8.332-8.332 3.75-8.332 8.332 3.75 8.332 8.332 8.332zm0 8.3359c-4.582 0-8.332 3.75-8.332 8.332s3.75 8.332 8.332 8.332 8.332-3.75 8.332-8.332-3.75-8.332-8.332-8.332zm0 25c-4.582 0-8.332 3.75-8.332 8.332s3.75 8.332 8.332 8.332 8.332-3.75 8.332-8.332-3.75-8.332-8.332-8.332z"/>
</svg>
