<?xml version="1.0" encoding="UTF-8"?>
<svg width="1200pt" height="1200pt" version="1.1" viewBox="0 0 1200 1200" xmlns="http://www.w3.org/2000/svg">
 <path d="m675 862.5c0 30.328-18.281 57.703-46.312 69.281-28.031 11.625-60.281 5.2031-81.703-16.266-21.469-21.422-27.891-53.672-16.266-81.703 11.578-28.031 38.953-46.312 69.281-46.312 19.875 0 38.953 7.9219 53.016 21.984s21.984 33.141 21.984 53.016zm-75-600c-41.438 0-75 33.562-75 75v318.74c0 4.9688 1.9688 9.75 5.4844 13.266 3.5156 3.5156 8.2969 5.4844 13.266 5.4844h112.5c4.9688 0 9.75-1.9688 13.266-5.4844 3.5156-3.5156 5.4844-8.2969 5.4844-13.266v-318.74c0-19.875-7.9219-38.953-21.984-53.016s-33.141-21.984-53.016-21.984zm543.74 337.5c0 144.24-57.281 282.52-159.28 384.47-101.95 102-240.24 159.28-384.47 159.28-144.23 0-282.52-57.281-384.47-159.28-102-101.95-159.28-240.24-159.28-384.47 0-144.23 57.281-282.52 159.28-384.47 101.95-102 240.24-159.28 384.47-159.28 144.23 0 282.52 57.281 384.47 159.28 102 101.95 159.28 240.24 159.28 384.47zm-431.26 262.5c0-45.516-27.422-86.531-69.469-103.92-42-17.438-90.422-7.7812-122.58 24.375s-41.812 80.578-24.375 122.58c17.391 42.047 58.406 69.469 103.92 69.469 62.109 0 112.5-50.391 112.5-112.5zm0-525c0-62.109-50.391-112.5-112.5-112.5s-112.5 50.391-112.5 112.5v318.74c0 31.078 25.172 56.25 56.25 56.25h112.5c31.078 0 56.25-25.172 56.25-56.25z" fill="#ff001b"/>
</svg>
